<?xml version="1.0" encoding="utf-8"?>
<!-- Generator: Adobe Illustrator 20.1.0, SVG Export Plug-In . SVG Version: 6.00 Build 0)  -->
<svg version="1.1" id="图层_1" xmlns="http://www.w3.org/2000/svg" xmlns:xlink="http://www.w3.org/1999/xlink" x="0px" y="0px"
	 viewBox="0 0 512 512" style="enable-background:new 0 0 512 512;" xml:space="preserve">
<style type="text/css">
	.st0{fill:#EBECEF;}
	.st1{fill:#D7D8DB;}
</style>
<g>
	<path class="st0" d="M96,466h320c11,0,20-9,20-20V66c0-11-9-20-20-20H96c-11,0-20,9-20,20v380C76,457,85,466,96,466z"/>
</g>
<g>
	<g>
		<path class="st1" d="M302.3,331h-92.5c-5.5,0-10-4.5-10-10V191c0-5.5,4.5-10,10-10h92.5c5.5,0,10,4.5,10,10v130
			C312.3,326.5,307.8,331,302.3,331z"/>
	</g>
	<g>
		<path class="st0" d="M287.7,207.9h-65c-1.1,0-2-0.9-2-2s0.9-2,2-2h65c1.1,0,2,0.9,2,2S288.8,207.9,287.7,207.9z"/>
	</g>
	<g>
		<path class="st0" d="M256,225.7h-33.3c-1.1,0-2-0.9-2-2s0.9-2,2-2H256c1.1,0,2,0.9,2,2S257.1,225.7,256,225.7z"/>
	</g>
	<g>
		<path class="st0" d="M256,244.3h-33.3c-1.1,0-2-0.9-2-2s0.9-2,2-2H256c1.1,0,2,0.9,2,2S257.1,244.3,256,244.3z"/>
	</g>
	<g>
		<path class="st0" d="M287.7,262.8h-65c-1.1,0-2-0.9-2-2s0.9-2,2-2h65c1.1,0,2,0.9,2,2S288.8,262.8,287.7,262.8z"/>
	</g>
	<g>
		<path class="st0" d="M285.9,250.6h-19.2c-2.1,0-3.8-1.7-3.8-3.8V220c0-2.1,1.7-3.8,3.8-3.8h19.2c2.1,0,3.8,1.7,3.8,3.8v26.8
			C289.7,248.9,288,250.6,285.9,250.6z M266.8,246.6h18.8v-26.5h-18.8V246.6z"/>
	</g>
</g>
</svg>
