<svg id="图层_1" data-name="图层 1" xmlns="http://www.w3.org/2000/svg" viewBox="0 0 360 420"><defs><style>.cls-1{fill:#ebecef;}.cls-2{fill:#d7d8db;}</style></defs><title>音频文件</title><rect class="cls-1" width="360" height="420" rx="20" ry="20"/><path class="cls-2" d="M265.56,201.56c0-2.37-1.71-3.39-3.8-2.28l-47.62,25.33a20.49,20.49,0,0,1-8.1,2H185a4.31,4.31,0,0,0-4.3,4.3v50.14a4.31,4.31,0,0,0,4.3,4.3H206a20.49,20.49,0,0,1,8.1,2l47.62,25.33c2.09,1.11,3.8.08,3.8-2.28Z" transform="translate(-76 -46)"/><path class="cls-2" d="M282.29,286.2a2.58,2.58,0,0,1-2-4.25,40.45,40.45,0,0,0,.18-52.12,2.58,2.58,0,1,1,4-3.31,45.61,45.61,0,0,1-.2,58.77A2.58,2.58,0,0,1,282.29,286.2Z" transform="translate(-76 -46)"/><path class="cls-2" d="M295,298.89a2.58,2.58,0,0,1-1.93-4.3,58,58,0,0,0,0-77.19A2.58,2.58,0,0,1,296.9,214a63.21,63.21,0,0,1,0,84.05A2.57,2.57,0,0,1,295,298.89Z" transform="translate(-76 -46)"/><path class="cls-2" d="M308,311.95a2.58,2.58,0,0,1-1.9-4.32,76.49,76.49,0,0,0,0-103.26,2.58,2.58,0,1,1,3.81-3.48,81.65,81.65,0,0,1,0,110.22A2.57,2.57,0,0,1,308,311.95Z" transform="translate(-76 -46)"/></svg>