<svg id="图层_1" data-name="图层 1" xmlns="http://www.w3.org/2000/svg" viewBox="0 0 360 420"><defs><style>.cls-1{fill:#ebecef;}.cls-2{fill:#d7d8db;}</style></defs><title>压缩文件</title><rect class="cls-1" width="360" height="420" rx="20" ry="20"/><rect class="cls-2" x="105" y="135" width="150" height="150" rx="10" ry="10"/><rect class="cls-1" x="160" y="135" width="20" height="5.06"/><rect class="cls-1" x="180" y="140.06" width="20" height="5.06"/><rect class="cls-1" x="160" y="145.11" width="20" height="5.06"/><rect class="cls-1" x="180" y="150.17" width="20" height="5.06"/><rect class="cls-1" x="160" y="155.23" width="20" height="5.06"/><rect class="cls-1" x="180" y="160.29" width="20" height="5.06"/><rect class="cls-1" x="160" y="165.34" width="20" height="5.06"/><rect class="cls-1" x="180" y="170.4" width="20" height="5.06"/><rect class="cls-1" x="160" y="175.46" width="20" height="5.06"/><rect class="cls-1" x="180" y="180.51" width="20" height="5.06"/><rect class="cls-1" x="160" y="185.57" width="20" height="5.06"/><rect class="cls-1" x="180" y="190.63" width="20" height="5.06"/><rect class="cls-1" x="160" y="195.69" width="20" height="5.06"/><rect class="cls-1" x="180" y="200.74" width="20" height="5.06"/><rect class="cls-1" x="160" y="205.8" width="20" height="5.06"/><rect class="cls-1" x="180" y="205.8" width="20" height="5.06"/><rect class="cls-1" x="180" y="210.85" width="20" height="5.06"/><rect class="cls-1" x="160" y="210.85" width="20" height="5.06"/><path class="cls-1" d="M276,274.52H236v-15.1h40Zm-35.15-5h30.3v-5.1h-30.3Z" transform="translate(-76 -46)"/></svg>