<svg id="图层_1" data-name="图层 1" xmlns="http://www.w3.org/2000/svg" viewBox="0 0 360 420"><defs><style>.cls-1{fill:#ebecef;}.cls-2{fill:#d7d8db;}</style></defs><title>应用程序</title><rect class="cls-1" width="360" height="420" rx="20" ry="20"/><path class="cls-2" d="M260.38,182.93a9.85,9.85,0,0,0-8.76,0l-57.19,32.52c-2.41,1.37-2.41,3.61,0,5L251.62,253a9.85,9.85,0,0,0,8.76,0l57.19-32.52c2.41-1.37,2.41-3.61,0-5Z" transform="translate(-76 -46)"/><path class="cls-2" d="M194.38,222c-2.38-1.37-4.33-.25-4.33,2.5v65a9.61,9.61,0,0,0,4.33,7.5l56.29,32.5c2.38,1.38,4.33.25,4.33-2.5V262a9.61,9.61,0,0,0-4.33-7.5Z" transform="translate(-76 -46)"/><path class="cls-2" d="M317.62,222c2.38-1.37,4.33-.25,4.33,2.5v65a9.61,9.61,0,0,1-4.33,7.5l-56.29,32.5c-2.38,1.38-4.33.25-4.33-2.5V262a9.61,9.61,0,0,1,4.33-7.5Z" transform="translate(-76 -46)"/></svg>